<svg xmlns="http://www.w3.org/2000/svg" version="1.1" xmlns:xlink="http://www.w3.org/1999/xlink"
    xmlns:svgjs="http://svgjs.dev/svgjs" width="1920" height="1080" preserveAspectRatio="none" viewBox="0 0 1920 1080">
    <g mask="url(&quot;#SvgjsMask1023&quot;)" fill="none">
        <rect width="1920" height="1080" x="0" y="0" fill="#f9fafb"></rect>
        <path d="M511.4 706.32a44.37 44.37 0 1 0-77.84-42.6z" stroke="#2563EB80"></path>
        <path d="M1248.55 19.87L1320.03 19.87L1320.03 39.08L1248.55 39.08z" fill="#2563EB80"></path>
        <path d="M246.68 560.24L259.41 560.24L259.41 634.58L246.68 634.58z" stroke="#2563EB80"></path>
        <path d="M1355.4 359.05L1371.28 359.05L1371.28 411L1355.4 411z" stroke="#2563EB80"></path>
        <path d="M1795.15 996.52L1886.5 996.52L1886.5 1087.87L1795.15 1087.87z" stroke="#2563EB80"></path>
        <path d="M493.3 198.39L515.95 198.39L515.95 263.13L493.3 263.13z" fill="#2563EB80"></path>
        <path d="M360.71 280.17 a11.11 11.11 0 1 0 22.22 0 a11.11 11.11 0 1 0 -22.22 0z" stroke="#2563EB80">
        </path>
        <path d="M390.26 502.61 a59.46 59.46 0 1 0 118.92 0 a59.46 59.46 0 1 0 -118.92 0z" fill="#2563EB80">
        </path>
        <path d="M1754.04 421.76L1769.66 421.76L1769.66 437.38L1754.04 437.38z" fill="#2563EB80"></path>
        <path d="M1658.45 1065.8 a50.66 50.66 0 1 0 101.32 0 a50.66 50.66 0 1 0 -101.32 0z" fill="#2563EB80">
        </path>
        <path d="M330.81 1029.54 a78.4 78.4 0 1 0 156.8 0 a78.4 78.4 0 1 0 -156.8 0z" stroke="#2563EB80">
        </path>
        <path d="M1457.67 177.97 a84.71 84.71 0 1 0 169.42 0 a84.71 84.71 0 1 0 -169.42 0z" fill="#2563EB80">
        </path>
        <path d="M101.83 728.53a102.98 102.98 0 1 0-150.75-140.34z" fill="#2563EB80"></path>
        <path d="M1673.47 488.03a65.95 65.95 0 1 0-72.11 110.44z" fill="#2563EB80"></path>
        <path d="M155.52 276.4L172.35 276.4L172.35 382.63L155.52 382.63z" stroke="#2563EB80"></path>
        <path d="M282.38 376.74L340.77 376.74L340.77 403.08L282.38 403.08z" fill="#2563EB80"></path>
        <path d="M1805.51 180.99L1806.18 180.99L1806.18 181.66L1805.51 181.66z" fill="#2563EB80"></path>
        <path d="M250.25 872.09a67.9 67.9 0 1 0 135.42-10.04z" stroke="#2563EB80"></path>
        <path d="M521.88 935.88a19.44 19.44 0 1 0 14.02 36.27z" fill="#2563EB80"></path>
        <path d="M467.07 343.78a15.03 15.03 0 1 0-29.65-4.93z" fill="#2563EB80"></path>
        <path d="M1398.87 830.84 a16.07 16.07 0 1 0 32.14 0 a16.07 16.07 0 1 0 -32.14 0z" stroke="#2563EB80">
        </path>
        <path d="M-9.63 126.7 a90.6 90.6 0 1 0 181.2 0 a90.6 90.6 0 1 0 -181.2 0z" fill="#2563EB80"></path>
        <path d="M1445.46 124.4L1457.99 124.4L1457.99 193.49L1445.46 193.49z" stroke="#2563EB80"></path>
    </g>
    <defs>
        <mask id="SvgjsMask1023">
            <rect width="1920" height="1080" fill="#ffffff"></rect>
        </mask>
    </defs>
</svg>